<mxfile host="app.diagrams.net" modified="2023-01-19T11:57:38.283Z" agent="5.0 (Macintosh; Intel Mac OS X 10_15_7) AppleWebKit/537.36 (KHTML, like Gecko) Chrome/109.0.0.0 Safari/537.36" etag="2493OD7MfQmnW7IGYJKX" version="20.8.5" type="github">
  <diagram name="Page-1" id="9f46799a-70d6-7492-0946-bef42562c5a5">
    <mxGraphModel dx="1114" dy="616" grid="1" gridSize="10" guides="1" tooltips="1" connect="1" arrows="1" fold="1" page="1" pageScale="1" pageWidth="1100" pageHeight="850" background="none" math="0" shadow="0">
      <root>
        <mxCell id="0" />
        <mxCell id="1" parent="0" />
        <mxCell id="FJIMjzcrqE6i6LkWMEak-26" value="" style="edgeStyle=orthogonalEdgeStyle;rounded=0;orthogonalLoop=1;jettySize=auto;html=1;" edge="1" parent="1" source="FJIMjzcrqE6i6LkWMEak-11">
          <mxGeometry relative="1" as="geometry">
            <mxPoint x="240" y="130" as="targetPoint" />
          </mxGeometry>
        </mxCell>
        <mxCell id="FJIMjzcrqE6i6LkWMEak-11" value="Developer" style="ellipse;whiteSpace=wrap;html=1;aspect=fixed;" vertex="1" parent="1">
          <mxGeometry x="80" y="90" width="80" height="80" as="geometry" />
        </mxCell>
        <mxCell id="FJIMjzcrqE6i6LkWMEak-13" value="" style="endArrow=classic;html=1;rounded=0;" edge="1" parent="1">
          <mxGeometry relative="1" as="geometry">
            <mxPoint x="120" y="170" as="sourcePoint" />
            <mxPoint x="120" y="310" as="targetPoint" />
          </mxGeometry>
        </mxCell>
        <mxCell id="FJIMjzcrqE6i6LkWMEak-14" value="checks in the code" style="edgeLabel;resizable=0;html=1;align=center;verticalAlign=middle;" connectable="0" vertex="1" parent="FJIMjzcrqE6i6LkWMEak-13">
          <mxGeometry relative="1" as="geometry">
            <mxPoint y="-10" as="offset" />
          </mxGeometry>
        </mxCell>
        <mxCell id="FJIMjzcrqE6i6LkWMEak-17" value="GITHUB" style="whiteSpace=wrap;html=1;aspect=fixed;" vertex="1" parent="1">
          <mxGeometry x="90" y="310" width="80" height="80" as="geometry" />
        </mxCell>
        <mxCell id="FJIMjzcrqE6i6LkWMEak-18" value="" style="endArrow=classic;html=1;rounded=0;" edge="1" parent="1">
          <mxGeometry relative="1" as="geometry">
            <mxPoint x="129.5" y="390" as="sourcePoint" />
            <mxPoint x="129.5" y="530" as="targetPoint" />
          </mxGeometry>
        </mxCell>
        <mxCell id="FJIMjzcrqE6i6LkWMEak-30" value="" style="edgeStyle=orthogonalEdgeStyle;rounded=0;orthogonalLoop=1;jettySize=auto;html=1;" edge="1" parent="1" source="FJIMjzcrqE6i6LkWMEak-21">
          <mxGeometry relative="1" as="geometry">
            <mxPoint x="270" y="555" as="targetPoint" />
          </mxGeometry>
        </mxCell>
        <mxCell id="FJIMjzcrqE6i6LkWMEak-21" value="CODE BUILD" style="rounded=0;whiteSpace=wrap;html=1;" vertex="1" parent="1">
          <mxGeometry x="70" y="530" width="120" height="60" as="geometry" />
        </mxCell>
        <mxCell id="FJIMjzcrqE6i6LkWMEak-22" value="" style="endArrow=classic;html=1;rounded=0;" edge="1" parent="1">
          <mxGeometry relative="1" as="geometry">
            <mxPoint x="129.5" y="600" as="sourcePoint" />
            <mxPoint x="129.5" y="740" as="targetPoint" />
          </mxGeometry>
        </mxCell>
        <mxCell id="FJIMjzcrqE6i6LkWMEak-32" value="" style="edgeStyle=orthogonalEdgeStyle;rounded=0;orthogonalLoop=1;jettySize=auto;html=1;" edge="1" parent="1" source="FJIMjzcrqE6i6LkWMEak-24" target="FJIMjzcrqE6i6LkWMEak-31">
          <mxGeometry relative="1" as="geometry" />
        </mxCell>
        <mxCell id="FJIMjzcrqE6i6LkWMEak-24" value="CODE BUILD" style="rounded=0;whiteSpace=wrap;html=1;" vertex="1" parent="1">
          <mxGeometry x="70" y="740" width="120" height="60" as="geometry" />
        </mxCell>
        <mxCell id="FJIMjzcrqE6i6LkWMEak-31" value="" style="shape=waypoint;sketch=0;size=6;pointerEvents=1;points=[];fillColor=default;resizable=0;rotatable=0;perimeter=centerPerimeter;snapToPoint=1;rounded=0;" vertex="1" parent="1">
          <mxGeometry x="330" y="730" width="20" height="20" as="geometry" />
        </mxCell>
        <mxCell id="FJIMjzcrqE6i6LkWMEak-33" value="" style="whiteSpace=wrap;html=1;aspect=fixed;" vertex="1" parent="1">
          <mxGeometry x="340" y="650" width="160" height="160" as="geometry" />
        </mxCell>
        <mxCell id="FJIMjzcrqE6i6LkWMEak-37" value="" style="edgeStyle=orthogonalEdgeStyle;rounded=0;orthogonalLoop=1;jettySize=auto;html=1;" edge="1" parent="1" source="FJIMjzcrqE6i6LkWMEak-34" target="FJIMjzcrqE6i6LkWMEak-36">
          <mxGeometry relative="1" as="geometry" />
        </mxCell>
        <mxCell id="FJIMjzcrqE6i6LkWMEak-34" value="ECS" style="rounded=1;whiteSpace=wrap;html=1;" vertex="1" parent="1">
          <mxGeometry x="350" y="660" width="100" height="50" as="geometry" />
        </mxCell>
        <mxCell id="FJIMjzcrqE6i6LkWMEak-35" value="&lt;h1&gt;code build&lt;/h1&gt;&lt;p&gt;-stops all the tasks&amp;nbsp;&lt;/p&gt;&lt;p&gt;-publishes the new task version to&lt;/p&gt;&lt;p&gt;ECS Service&lt;/p&gt;" style="text;html=1;strokeColor=none;fillColor=none;spacing=5;spacingTop=-20;whiteSpace=wrap;overflow=hidden;rounded=0;" vertex="1" parent="1">
          <mxGeometry x="210" y="830" width="190" height="120" as="geometry" />
        </mxCell>
        <mxCell id="FJIMjzcrqE6i6LkWMEak-39" style="edgeStyle=orthogonalEdgeStyle;rounded=0;orthogonalLoop=1;jettySize=auto;html=1;" edge="1" parent="1" source="FJIMjzcrqE6i6LkWMEak-36" target="FJIMjzcrqE6i6LkWMEak-38">
          <mxGeometry relative="1" as="geometry" />
        </mxCell>
        <mxCell id="FJIMjzcrqE6i6LkWMEak-36" value="ECS Service" style="rounded=1;whiteSpace=wrap;html=1;" vertex="1" parent="1">
          <mxGeometry x="340" y="740" width="100" height="50" as="geometry" />
        </mxCell>
        <mxCell id="FJIMjzcrqE6i6LkWMEak-38" value="" style="rounded=1;whiteSpace=wrap;html=1;" vertex="1" parent="1">
          <mxGeometry x="540" y="710" width="250" height="220" as="geometry" />
        </mxCell>
        <mxCell id="FJIMjzcrqE6i6LkWMEak-48" value="" style="edgeStyle=orthogonalEdgeStyle;rounded=0;orthogonalLoop=1;jettySize=auto;html=1;" edge="1" parent="1" source="FJIMjzcrqE6i6LkWMEak-40" target="FJIMjzcrqE6i6LkWMEak-46">
          <mxGeometry relative="1" as="geometry" />
        </mxCell>
        <mxCell id="FJIMjzcrqE6i6LkWMEak-40" value="ECS&amp;nbsp; TASk" style="rounded=1;whiteSpace=wrap;html=1;" vertex="1" parent="1">
          <mxGeometry x="570" y="730" width="120" height="60" as="geometry" />
        </mxCell>
        <mxCell id="FJIMjzcrqE6i6LkWMEak-42" value="" style="rounded=0;whiteSpace=wrap;html=1;" vertex="1" parent="1">
          <mxGeometry x="560" y="840" width="200" height="60" as="geometry" />
        </mxCell>
        <mxCell id="FJIMjzcrqE6i6LkWMEak-44" value="" style="edgeStyle=orthogonalEdgeStyle;rounded=0;orthogonalLoop=1;jettySize=auto;html=1;" edge="1" parent="1" source="FJIMjzcrqE6i6LkWMEak-43" target="FJIMjzcrqE6i6LkWMEak-42">
          <mxGeometry relative="1" as="geometry" />
        </mxCell>
        <mxCell id="FJIMjzcrqE6i6LkWMEak-43" value="ECS Agent" style="text;html=1;strokeColor=none;fillColor=none;align=center;verticalAlign=middle;whiteSpace=wrap;rounded=0;" vertex="1" parent="1">
          <mxGeometry x="810" y="850" width="60" height="30" as="geometry" />
        </mxCell>
        <mxCell id="FJIMjzcrqE6i6LkWMEak-45" value="vm1" style="rounded=1;whiteSpace=wrap;html=1;" vertex="1" parent="1">
          <mxGeometry x="580" y="850" width="50" height="40" as="geometry" />
        </mxCell>
        <mxCell id="FJIMjzcrqE6i6LkWMEak-46" value="vm2" style="whiteSpace=wrap;html=1;rounded=1;" vertex="1" parent="1">
          <mxGeometry x="650" y="852.5" width="75" height="35" as="geometry" />
        </mxCell>
        <mxCell id="FJIMjzcrqE6i6LkWMEak-49" value="&lt;h1&gt;Heading&lt;/h1&gt;&lt;p&gt;Lorem ipsum dolor sit amet, consectetur adipisicing elit, sed do eiusmod tempor incididunt ut labore et dolore magna aliqua.&lt;/p&gt;" style="text;html=1;strokeColor=none;fillColor=none;spacing=5;spacingTop=-20;whiteSpace=wrap;overflow=hidden;rounded=0;" vertex="1" parent="1">
          <mxGeometry x="790" y="940" width="190" height="120" as="geometry" />
        </mxCell>
        <mxCell id="FJIMjzcrqE6i6LkWMEak-50" value="&lt;h1&gt;Build the image&lt;/h1&gt;&lt;p&gt;1.Tests the code&lt;/p&gt;&lt;p&gt;2. builds the image&lt;/p&gt;" style="text;html=1;strokeColor=none;fillColor=none;spacing=5;spacingTop=-20;whiteSpace=wrap;overflow=hidden;rounded=0;" vertex="1" parent="1">
          <mxGeometry x="290" y="520" width="190" height="120" as="geometry" />
        </mxCell>
        <mxCell id="FJIMjzcrqE6i6LkWMEak-51" value="&lt;h1&gt;Developer&lt;/h1&gt;&lt;p&gt;-adds the feature to the system&lt;/p&gt;&lt;p&gt;-pushes the code to github&lt;/p&gt;" style="text;html=1;strokeColor=none;fillColor=none;spacing=5;spacingTop=-20;whiteSpace=wrap;overflow=hidden;rounded=0;" vertex="1" parent="1">
          <mxGeometry x="245" y="110" width="190" height="120" as="geometry" />
        </mxCell>
      </root>
    </mxGraphModel>
  </diagram>
</mxfile>
